<?xml version="1.0" standalone="no"?>
<!DOCTYPE svg PUBLIC "-//W3C//DTD SVG 20010904//EN"
 "http://www.w3.org/TR/2001/REC-SVG-20010904/DTD/svg10.dtd">
<svg version="1.0" xmlns="http://www.w3.org/2000/svg"
 width="1083.000000pt" height="603.000000pt" viewBox="0 0 1083.000000 603.000000"
 preserveAspectRatio="xMidYMid meet">

<g transform="translate(0.000000,603.000000) scale(0.100000,-0.100000)"
fill="#000000" stroke="none">
<path d="M0 3015 l0 -3015 5415 0 5415 0 0 3015 0 3015 -5415 0 -5415 0 0
-3015z m7887 2938 c10 -10 12 -13 3 -8 -13 9 -13 8 -1 -7 7 -10 17 -15 22 -13
11 8 180 -116 173 -126 -3 -5 2 -6 10 -3 10 4 4 -23 -22 -100 -20 -59 -39
-101 -41 -94 -7 23 -34 48 -52 48 -20 0 -89 -30 -89 -39 0 -4 28 -17 61 -30
51 -19 63 -21 71 -10 7 10 8 2 4 -25 -3 -21 -7 -40 -9 -42 -2 -3 -31 9 -63 25
-32 17 -54 31 -49 31 12 1 -36 29 -50 29 -5 0 1 -6 15 -14 14 -8 21 -14 15
-14 -14 0 -62 28 -50 29 12 1 -36 29 -50 29 -5 0 1 -6 15 -14 35 -20 18 -19
-24 2 -19 9 -33 21 -29 26 3 5 -4 6 -17 2 -14 -4 -20 -3 -17 3 6 8 -94 57
-133 64 -8 2 -21 9 -28 16 -12 11 -18 10 -35 -5 -12 -10 1 8 29 41 45 54 207
196 222 196 4 0 13 -4 21 -9 10 -7 23 -3 39 10 30 23 35 24 59 2z m247 -168
c-6 -16 -24 -21 -24 -7 0 11 11 22 21 22 5 0 6 -7 3 -15z m120 -36 c-21 -8
-20 -8 54 -29 24 -6 42 -13 40 -15 -4 -4 -69 11 -98 22 -8 3 -19 5 -23 4 -4
-1 -3 8 3 18 7 13 16 18 27 14 15 -6 14 -7 -3 -14z m-74 -4 c14 -8 21 -14 15
-14 -5 0 -21 6 -35 14 -14 8 -20 14 -15 14 6 0 21 -6 35 -14z m-623 -62 c3
-10 20 -33 37 -51 l31 -34 -40 17 c-22 9 -52 21 -67 27 -17 6 -28 17 -28 29 0
12 5 16 14 13 8 -3 17 -1 21 5 10 16 25 13 32 -6z m953 -22 c0 -5 -18 -7 -40
-5 -49 6 -50 -4 -4 -36 20 -13 31 -26 25 -28 -9 -3 -9 -7 0 -18 6 -8 8 -14 3
-14 -5 0 -10 -16 -11 -35 -1 -19 3 -35 9 -35 5 0 8 7 4 15 -3 8 -2 15 3 15 17
0 19 -13 5 -35 -13 -20 -13 -27 -2 -44 12 -19 22 -25 32 -18 8 5 45 -36 40
-45 -7 -10 45 -69 121 -138 31 -28 50 -50 43 -49 -7 0 -44 12 -82 27 -57 22
-71 33 -80 57 -6 17 -29 62 -51 102 -32 58 -45 72 -67 75 -19 3 -28 0 -28 -9
0 -7 -6 -13 -14 -13 -14 0 -42 87 -32 98 3 3 0 12 -6 20 -18 21 -22 104 -6
114 18 11 138 10 138 -1z m-672 -161 c89 -43 162 -83 162 -88 0 -17 -325 156
-355 190 l-30 33 31 -28 c17 -15 103 -63 192 -107z m-258 51 c0 -3 -4 -12 -9
-19 -6 -10 -11 -9 -22 4 -12 15 -12 17 0 9 11 -6 13 -4 8 8 -4 11 -2 14 9 10
7 -3 14 -8 14 -12z m80 -41 c0 -5 -5 -10 -11 -10 -5 0 -7 5 -4 10 3 6 8 10 11
10 2 0 4 -4 4 -10z m748 -124 c9 -20 7 -29 -9 -50 l-21 -26 -29 21 c-17 11
-42 24 -57 28 -25 7 -23 9 33 28 76 27 70 27 83 -1z m-225 -67 c86 -48 113
-72 42 -36 -82 41 -141 77 -127 77 7 0 45 -18 85 -41z m-580 -141 c-2 -5 8 -8
24 -8 15 0 34 -4 41 -8 17 -12 -22 -52 -51 -52 -16 0 -18 -3 -8 -9 8 -5 9 -11
3 -15 -16 -10 -22 20 -21 102 1 66 2 71 9 37 4 -22 6 -43 3 -47z m1007 42 c0
-5 -4 -10 -10 -10 -5 0 -10 5 -10 10 0 6 5 10 10 10 6 0 10 -4 10 -10z m-7128
-45 c400 -77 392 -75 328 -70 -30 2 -145 16 -255 30 -110 14 -217 24 -238 20
-23 -3 -36 -2 -33 4 4 5 -13 21 -36 35 -60 36 -42 34 234 -19z m-294 -13 c15
-10 -26 -32 -59 -32 -24 0 -16 18 15 30 27 11 29 11 44 2z m6529 -12 c1 -11
-4 -20 -10 -20 -7 0 -13 9 -13 20 0 11 5 20 11 20 6 0 11 -9 12 -20z m-6459 3
c-29 -7 -21 -21 15 -26 24 -3 21 -4 -15 -5 -27 -1 -48 0 -48 2 0 21 16 36 39
35 17 -1 20 -3 9 -6z m4908 -29 c160 -27 333 -70 444 -109 143 -52 213 -92
301 -175 46 -43 80 -79 76 -80 -5 0 -38 29 -74 65 -89 90 -101 95 -230 96
-114 2 -188 15 -413 74 -169 44 -312 65 -431 64 l-94 -1 70 -13 c97 -17 219
-49 360 -95 66 -21 172 -48 235 -59 63 -12 129 -25 145 -31 l30 -10 -30 4
c-127 14 -324 54 -450 91 -190 56 -312 84 -376 87 -43 2 -48 4 -33 15 23 16
18 16 -53 -2 -31 -8 -92 -15 -134 -15 -148 0 -312 -47 -478 -136 -121 -66
-139 -80 -151 -122 -5 -20 -26 -64 -46 -97 -20 -33 -56 -98 -80 -145 -48 -94
-78 -135 -93 -126 -20 13 25 131 107 278 51 93 58 100 135 152 189 124 395
201 587 217 63 6 150 15 193 21 152 21 376 -8 700 -92 108 -27 206 -50 217
-50 49 0 9 20 -127 63 -181 57 -315 90 -482 117 -69 11 -141 23 -159 26 -19 3
-30 9 -26 16 9 15 190 1 360 -28z m2429 -57 c129 -86 270 -190 280 -208 4 -5
-31 19 -77 54 -45 35 -143 104 -215 152 -73 48 -133 89 -133 92 0 6 6 2 145
-90z m-260 72 c11 -17 -1 -21 -15 -4 -8 9 -8 15 -2 15 6 0 14 -5 17 -11z
m-6821 -21 c-2 -3 13 -4 33 -2 21 3 58 0 83 -5 41 -9 38 -10 -30 -6 l-75 4 93
-16 c53 -9 87 -20 80 -24 -6 -4 10 -7 37 -7 56 1 165 -20 180 -35 7 -6 -3 -7
-27 -3 -21 4 -75 11 -120 17 -246 29 -248 29 -217 -33 48 -94 101 -156 194
-226 51 -38 99 -72 107 -74 7 -3 11 -8 8 -11 -3 -3 -84 30 -180 74 -195 88
-200 91 -301 242 -62 93 -70 110 -42 100 11 -4 14 -3 9 5 -5 9 16 11 82 9 50
-1 88 -5 86 -9z m6964 -42 c19 -10 32 -20 29 -22 -5 -6 -107 55 -107 63 0 3
10 -1 23 -9 12 -8 37 -23 55 -32z m-6581 18 c-3 -3 -12 -4 -19 -1 -8 3 -5 6 6
6 11 1 17 -2 13 -5z m6728 -4 c3 -5 1 -10 -4 -10 -6 0 -11 5 -11 10 0 6 2 10
4 10 3 0 8 -4 11 -10z m-7427 -16 c15 -9 45 -39 67 -67 39 -50 37 -52 -17 -15
-28 19 -95 98 -83 98 4 0 19 -7 33 -16z m782 -13 c28 -8 94 -20 142 -25 3 -1
10 -4 14 -8 4 -5 25 -8 46 -8 21 0 38 -4 38 -10 0 -5 16 -10 35 -10 19 0 35
-4 35 -10 0 -14 -33 -12 -104 6 -90 23 -348 74 -378 74 -5 0 -8 4 -8 8 0 10
130 -3 180 -17z m5760 -1 c0 -34 -18 -49 -49 -41 l-24 6 28 13 c21 10 25 16
16 26 -12 15 -8 23 14 23 10 0 15 -10 15 -27z m534 -20 c-19 -27 -33 -54 -29
-60 3 -5 0 -10 -7 -10 -7 0 -22 -11 -32 -25 -65 -87 -41 -42 39 73 28 39 53
72 57 72 5 0 -8 -22 -28 -50z m258 -20 c22 0 378 -257 458 -330 42 -39 42 -40
5 -11 -168 132 -299 224 -426 302 -82 50 -152 95 -155 100 -3 5 21 -7 53 -26
32 -19 61 -35 65 -35z m-842 40 c0 -5 -4 -10 -9 -10 -6 0 -13 5 -16 10 -3 6 1
10 9 10 9 0 16 -4 16 -10z m849 -114 c20 -21 49 -57 64 -80 l29 -41 -29 35
c-15 19 -59 69 -98 110 -38 41 -55 62 -36 45 19 -16 50 -48 70 -69z m375 75
c28 -31 -2 -38 -32 -7 -25 25 -25 26 -6 26 12 0 29 -9 38 -19z m-1612 -36 c-4
-24 -22 -36 -22 -15 0 16 -33 12 -59 -7 -14 -9 -21 -11 -17 -5 8 14 75 51 92
52 7 0 9 -10 6 -25z m1391 -37 c31 -21 57 -41 57 -43 0 -5 -150 91 -160 102
-10 12 47 -21 103 -59z m-1188 31 c-8 -12 -45 -12 -45 0 0 10 30 20 43 14 4
-3 5 -9 2 -14z m180 11 c3 -5 -1 -10 -10 -10 -9 0 -13 5 -10 10 3 6 8 10 10
10 2 0 7 -4 10 -10z m95 0 c0 -5 -4 -10 -10 -10 -5 0 -10 5 -10 10 0 6 5 10
10 10 6 0 10 -4 10 -10z m-5580 -40 c22 -11 40 -23 40 -25 0 -5 -79 32 -89 41
-11 10 14 2 49 -16z m6651 -17 l24 -26 -27 19 c-15 10 -28 22 -28 27 0 12 5 8
31 -20z m-928 10 c-7 -2 -19 -2 -25 0 -7 3 -2 5 12 5 14 0 19 -2 13 -5z
m-5553 -63 c36 -7 72 -19 80 -28 13 -13 13 -14 -5 -7 -11 4 -50 14 -86 22 -36
9 -76 24 -90 35 l-24 19 30 -14 c17 -8 59 -21 95 -27z m5634 -1 c-5 -8 -9 -8
-14 1 -5 8 -9 7 -13 -5 -4 -9 -3 -13 3 -10 17 11 10 -19 -10 -45 -11 -14 -20
-41 -20 -62 0 -20 -4 -40 -10 -43 -6 -4 -10 10 -10 34 l0 39 -47 -18 c-27 -11
-70 -27 -97 -36 -41 -15 -46 -19 -32 -29 20 -15 20 -21 -1 -29 -9 -4 -20 -1
-24 5 -17 28 -139 -101 -154 -162 -5 -21 -1 -29 19 -43 42 -27 29 -76 -21 -76
-27 0 -47 33 -35 58 5 9 7 22 5 29 -8 23 42 119 89 169 27 28 54 59 61 67 17
23 128 88 138 81 5 -3 9 3 9 13 1 17 1 17 11 1 12 -22 55 -23 89 -2 14 8 17
13 7 10 -11 -4 -16 -2 -12 5 4 6 13 8 21 5 16 -6 17 -4 8 18 -3 9 -12 16 -20
16 -24 0 -15 16 19 32 27 13 33 13 40 2 4 -8 5 -19 1 -25z m907 4 l24 -26 -27
19 c-15 10 -28 22 -28 27 0 12 5 8 31 -20z m-6835 8 c-3 -5 13 -12 37 -16 23
-4 56 -9 72 -12 17 -3 31 -6 33 -8 5 -4 -132 -33 -193 -40 l-50 -6 47 46 c43
41 67 58 54 36z m6744 -37 c0 -3 -13 4 -30 16 -16 12 -30 24 -30 26 0 3 14 -4
30 -16 17 -12 30 -24 30 -26z m-7379 19 c13 -16 12 -17 -3 -4 -17 13 -22 21
-14 21 2 0 10 -8 17 -17z m5539 -48 c35 -36 62 -65 59 -65 -2 0 -34 29 -69 65
-35 36 -62 65 -59 65 2 0 34 -29 69 -65z m1248 36 c-13 -15 -25 -27 -27 -25
-4 4 39 54 47 54 2 0 -7 -13 -20 -29z m757 6 c11 -8 14 -16 8 -20 -6 -4 -18 2
-28 13 -21 23 -8 27 20 7z m-2791 -3 c9 -3 16 -12 16 -20 0 -10 -7 -11 -32 -2
-46 15 -57 28 -26 28 15 0 33 -3 42 -6z m-3837 -10 c-3 -3 -12 -4 -19 -1 -8 3
-5 6 6 6 11 1 17 -2 13 -5z m4260 -10 c-3 -3 -12 -4 -19 -1 -8 3 -5 6 6 6 11
1 17 -2 13 -5z m2234 -11 c13 -16 12 -17 -3 -4 -10 7 -18 15 -18 17 0 8 8 3
21 -13z m235 -8 c42 -32 139 -151 196 -240 127 -200 168 -366 134 -536 -10
-49 -16 -96 -12 -104 3 -8 1 -17 -4 -20 -6 -4 -10 13 -10 39 0 24 -5 57 -11
73 -6 15 -10 57 -10 91 2 132 -13 179 -105 318 -46 69 -84 129 -84 131 0 3
-15 23 -32 43 -18 21 -44 52 -58 68 -14 17 -49 58 -78 91 -30 34 -52 61 -49
61 2 0 28 -23 58 -51 29 -28 55 -46 57 -40 2 6 8 8 14 5 6 -4 5 2 -1 15 -14
25 -23 28 -14 5 4 -12 2 -15 -8 -12 -8 3 -13 13 -13 22 1 9 -1 16 -5 16 -4 0
-8 11 -9 25 -2 31 3 31 44 0z m-156 -10 c13 -14 21 -25 18 -25 -2 0 -15 11
-28 25 -13 14 -21 25 -18 25 2 0 15 -11 28 -25z m-1027 8 c-7 -2 -21 -2 -30 0
-10 3 -4 5 12 5 17 0 24 -2 18 -5z m988 -20 c13 -16 12 -17 -3 -4 -10 7 -18
15 -18 17 0 8 8 3 21 -13z m-2598 -35 c37 -51 43 -65 17 -43 l-23 20 12 -22
c6 -13 10 -23 7 -23 -3 0 -16 23 -30 50 -28 57 -19 66 17 18z m2471 -56 c38
-26 126 -76 194 -111 96 -50 141 -80 199 -135 86 -81 94 -95 121 -197 11 -41
37 -114 58 -164 30 -73 38 -105 41 -170 4 -75 3 -78 -11 -54 -28 48 -83 234
-94 316 -6 46 -20 100 -31 122 -44 85 -230 221 -304 221 -18 0 -48 14 -78 36
-69 50 -61 37 14 -23 70 -56 228 -236 200 -227 -12 3 -9 -1 7 -13 14 -10 41
-33 60 -52 l35 -34 -35 25 c-107 76 -140 100 -140 105 0 3 12 -2 26 -12 14 -9
28 -14 31 -11 3 3 -22 22 -55 43 -68 43 -104 67 -83 57 10 -5 12 -3 7 5 -5 7
-15 10 -23 7 -8 -3 -11 -1 -8 4 3 6 2 10 -3 10 -25 0 -113 103 -155 180 -26
47 -57 101 -69 120 l-23 35 25 -18 c14 -10 56 -39 94 -65z m177 51 c13 -16 12
-17 -3 -4 -10 7 -18 15 -18 17 0 8 8 3 21 -13z m-1658 -14 c-6 -6 -9 -19 -5
-27 5 -14 4 -15 -10 -2 -17 16 -7 40 15 40 8 0 8 -3 0 -11z m947 -13 c0 -3 -4
-8 -10 -11 -5 -3 -10 -1 -10 4 0 6 5 11 10 11 6 0 10 -2 10 -4z m-2409 -23
c13 -16 12 -17 -3 -4 -10 7 -18 15 -18 17 0 8 8 3 21 -13z m888 -10 c41 -15
69 -29 63 -31 -11 -3 -152 47 -152 55 0 7 17 2 89 -24z m-115 -56 c41 -54 42
-57 19 -57 -9 0 -34 17 -55 37 -53 52 -47 35 12 -36 28 -33 50 -65 50 -71 0
-5 -11 -10 -24 -10 -14 0 -36 -4 -49 -9 -21 -8 -28 -4 -63 40 -21 27 -41 54
-43 60 -7 22 44 -3 77 -38 55 -56 46 -32 -13 40 -30 37 -55 69 -55 72 0 3 12
5 28 6 15 0 36 4 47 9 27 12 28 11 69 -43z m586 43 c0 -5 -7 -10 -16 -10 -8 0
-12 5 -9 10 3 6 10 10 16 10 5 0 9 -4 9 -10z m-5027 -52 c15 -6 26 -12 24 -15
-6 -5 -109 36 -122 49 -5 5 8 2 30 -7 22 -9 53 -22 68 -27z m-207 9 c93 -37
295 -130 290 -134 -2 -2 -29 8 -61 22 -32 14 -63 25 -70 25 -15 0 -225 98
-225 105 0 7 1 7 66 -18z m5614 -61 c0 -2 -7 -7 -16 -10 -8 -3 -12 -2 -9 4 6
10 25 14 25 6z m-204 -43 c-10 -10 -19 5 -10 18 6 11 8 11 12 0 2 -7 1 -15 -2
-18z m-186 -13 c11 -20 6 -40 -8 -40 -12 0 -33 40 -27 50 10 16 23 12 35 -10z
m270 15 c0 -7 -30 -13 -34 -7 -3 4 4 9 15 9 10 1 19 0 19 -2z m1715 -15 c10
-11 16 -20 13 -20 -3 0 -13 9 -23 20 -10 11 -16 20 -13 20 3 0 13 -9 23 -20z
m-2048 4 c-3 -3 -12 -4 -19 -1 -8 3 -5 6 6 6 11 1 17 -2 13 -5z m623 -4 c0 -5
-4 -10 -9 -10 -5 0 -18 -3 -28 -6 -16 -5 -16 -4 1 10 23 18 36 20 36 6z m998
-31 c2 -5 10 -9 18 -9 8 0 14 -4 14 -10 0 -16 -26 -12 -41 6 -7 9 -22 20 -34
25 -15 7 -13 8 10 3 17 -3 32 -10 33 -15z m-5787 -70 c52 -38 124 -82 160 -98
35 -17 53 -28 39 -26 -14 3 -70 12 -125 20 -125 20 -199 39 -295 76 -80 31
-139 72 -120 84 7 4 61 7 122 6 83 -2 108 1 102 10 -10 16 2 9 117 -72z m4084
72 c-13 -12 -177 -82 -182 -77 -3 3 175 85 187 86 2 0 0 -4 -5 -9z m-4635 -56
c61 -30 110 -57 110 -60 0 -5 -219 102 -229 111 -14 13 23 -3 119 -51z m3883
34 c55 -15 48 -33 -10 -24 -77 11 -133 27 -133 37 0 11 78 4 143 -13z m1367
17 c0 -2 -7 -7 -16 -10 -8 -3 -12 -2 -9 4 6 10 25 14 25 6z m-6977 -23 c-13
-2 -35 -2 -50 0 -16 2 -5 4 22 4 28 0 40 -2 28 -4z m6862 -3 c3 -5 2 -10 -4
-10 -5 0 -13 5 -16 10 -3 6 -2 10 4 10 5 0 13 -4 16 -10z m942 -6 c5 -15 7
-15 15 0 10 18 28 13 28 -8 0 -8 -50 -19 -156 -35 -87 -12 -162 -23 -167 -24
-6 -1 -12 5 -14 14 -3 14 18 21 124 42 155 31 162 31 170 11z m623 -101 c0 -8
-9 0 -50 45 l-45 47 48 -45 c26 -24 47 -45 47 -47z m-3134 51 c-4 -9 -9 -15
-11 -12 -3 3 -3 13 1 22 4 9 9 15 11 12 3 -3 3 -13 -1 -22z m864 -4 c-8 -5
-19 -10 -25 -10 -5 0 -3 5 5 10 8 5 20 10 25 10 6 0 3 -5 -5 -10z m1573 -7
c-7 -2 -19 -2 -25 0 -7 3 -2 5 12 5 14 0 19 -2 13 -5z m-126 -19 c-3 -3 -12
-4 -19 -1 -8 3 -5 6 6 6 11 1 17 -2 13 -5z m-54 -11 c-7 -2 -19 -2 -25 0 -7 3
-2 5 12 5 14 0 19 -2 13 -5z m-63 -13 c-14 -4 -34 -8 -45 -8 -16 0 -15 2 5 8
14 4 34 8 45 8 16 0 15 -2 -5 -8z m-115 -26 c-27 -7 -54 -13 -60 -13 -17 2 69
27 90 27 11 0 -2 -6 -30 -14z m1095 -19 c13 -14 21 -25 18 -25 -2 0 -15 11
-28 25 -13 14 -21 25 -18 25 2 0 15 -11 28 -25z m-1171 1 c-7 -7 -131 -37
-136 -33 -2 3 22 11 54 20 59 15 90 20 82 13z m-481 -17 c-2 -6 -8 -10 -13
-10 -5 0 -11 4 -13 10 -2 6 4 11 13 11 9 0 15 -5 13 -11z m-369 -2 c-2 -1 -15
-11 -29 -22 l-25 -20 19 23 c11 12 24 22 29 22 6 0 8 -1 6 -3z m-894 -43 c-65
-31 -86 -31 -50 0 18 16 40 24 64 24 l36 -1 -50 -23z m1592 20 c-3 -3 -12 -4
-19 -1 -8 3 -5 6 6 6 11 1 17 -2 13 -5z m1364 -11 c13 -16 12 -17 -3 -4 -10 7
-18 15 -18 17 0 8 8 3 21 -13z m-1416 -3 c-11 -5 -27 -9 -35 -9 -9 0 -8 4 5 9
11 5 27 9 35 9 9 0 8 -4 -5 -9z m-6812 -7 c9 -9 -23 -43 -40 -43 -11 0 -10 6
4 25 19 26 26 29 36 18z m6742 -13 c-11 -5 -27 -9 -35 -9 -9 0 -8 4 5 9 11 5
27 9 35 9 9 0 8 -4 -5 -9z m-6972 -7 c-7 -2 -19 -2 -25 0 -7 3 -2 5 12 5 14 0
19 -2 13 -5z m2085 -24 c53 -15 48 -24 -6 -10 -22 6 -46 19 -53 29 -12 15 -12
15 1 6 8 -7 34 -18 58 -25z m3979 -23 c-51 -48 -161 -117 -183 -116 -5 1 0 6
11 13 12 7 32 23 45 35 24 22 169 120 180 121 3 0 -21 -24 -53 -53z m2446 2
c37 -54 81 -147 73 -155 -2 -3 -7 5 -11 17 -12 37 -64 90 -83 83 -35 -13 -52
-36 -52 -74 0 -52 8 -67 44 -85 62 -31 145 -89 146 -101 0 -19 -8 -16 -49 15
-42 33 -105 72 -116 72 -13 0 6 -75 23 -87 14 -12 14 -13 0 -13 -9 0 -23 -3
-32 -6 -14 -5 -16 3 -16 53 0 32 -7 85 -15 116 -19 75 -21 68 21 122 26 35 34
53 30 71 -4 13 -5 24 -3 24 2 0 20 -24 40 -52z m-2123 27 c0 -3 -32 -22 -72
-42 -39 -21 -90 -48 -112 -60 -23 -12 -47 -21 -53 -18 -7 2 -13 0 -13 -6 0 -6
-5 -7 -12 -3 -7 5 37 32 112 69 119 59 150 71 150 60z m336 -51 c-55 -18 -101
-32 -103 -30 -5 5 167 64 187 64 8 0 -30 -15 -84 -34z m-129 -41 c-30 -8 -13
-27 44 -50 52 -21 53 -22 25 -29 -42 -10 -172 2 -196 19 -20 14 -17 16 47 40
37 14 75 26 83 25 10 0 9 -2 -3 -5z m-222 -54 c-76 -27 -143 -48 -149 -46 -11
4 252 96 274 96 8 0 -48 -22 -125 -50z m1986 39 c35 -10 54 -28 30 -28 -13 0
-81 29 -81 35 0 7 9 6 51 -7z m-8429 -25 l26 -28 -81 -160 -82 -160 -55 0
c-98 1 -98 1 -26 117 147 239 159 258 176 258 9 0 28 -12 42 -27z m4715 -19
c-3 -3 -12 -4 -19 -1 -8 3 -5 6 6 6 11 1 17 -2 13 -5z m1423 -6 c0 -6 -3 -9
-6 -6 -3 4 -21 0 -39 -8 -19 -8 -40 -14 -47 -13 -7 0 7 8 32 19 56 22 60 23
60 8z m-1527 -5 c-7 -2 -19 -2 -25 0 -7 3 -2 5 12 5 14 0 19 -2 13 -5z m1630
-40 c-24 -2 -62 -2 -85 0 -24 2 -5 4 42 4 47 0 66 -2 43 -4z m2197 -56 c0 -7
-11 2 -25 18 -32 39 -32 58 0 22 14 -15 25 -33 25 -40z m-4291 49 c-2 -2 -42
-6 -89 -9 -52 -4 -75 -3 -60 3 24 8 158 14 149 6z m2691 -21 c107 -8 280 -22
383 -31 l188 -17 135 23 c147 25 174 24 379 -10 182 -31 468 -100 487 -119 5
-4 -22 -27 -58 -51 -95 -65 -124 -83 -124 -76 0 3 12 12 28 20 35 19 37 18
-178 55 -272 47 -346 58 -635 91 -148 17 -319 37 -378 45 -59 8 -113 15 -119
15 -35 0 19 -14 193 -49 192 -39 712 -151 716 -154 1 -1 -101 -2 -225 -2 -203
-1 -241 -4 -358 -27 l-130 -26 -105 19 c-57 10 -116 21 -131 23 -42 8 -34 -10
19 -41 25 -15 42 -28 37 -30 -5 -1 -73 -14 -152 -27 -79 -14 -146 -28 -151
-30 -10 -7 -84 -127 -80 -130 2 -2 69 12 149 30 174 40 160 38 160 16 0 -16
-25 -24 -172 -57 l-173 -37 -74 -109 c-104 -153 -265 -351 -357 -438 -43 -41
-71 -72 -63 -68 8 3 145 63 304 132 160 69 423 179 585 244 293 118 295 119
349 110 30 -5 65 -6 78 -3 13 4 29 1 36 -5 16 -12 157 -27 157 -17 0 4 -10 16
-22 26 -22 17 -21 18 50 30 40 6 74 15 77 20 3 4 -9 17 -26 28 l-31 19 129 5
c70 3 129 5 130 4 3 -2 -86 -71 -312 -241 -110 -83 -340 -243 -510 -357 -395
-262 -431 -299 -455 -464 -21 -146 -1 -455 50 -754 9 -58 16 -107 14 -109 -6
-6 -145 77 -229 137 -87 63 -90 67 -138 197 -70 192 -250 451 -456 655 -125
124 -239 217 -518 419 -53 39 -80 66 -104 109 -17 31 -49 83 -70 114 -22 31
-39 62 -39 68 0 5 26 -3 58 -19 52 -26 223 -100 601 -260 174 -74 212 -78 285
-30 116 77 403 453 591 774 32 55 72 114 88 131 16 18 25 34 19 38 -5 3 -80
30 -166 60 -86 30 -190 71 -232 91 -66 32 -74 38 -62 52 11 14 35 15 188 9 96
-3 263 -13 370 -21z m1730 -170 c17 -9 30 -17 30 -18 0 -4 -151 21 -165 27 -5
3 16 5 48 5 34 1 70 -5 87 -14z m121 -23 c11 -14 11 -15 -1 -4 -8 6 -24 12
-36 12 -12 0 -24 6 -27 14 -5 12 -1 13 23 4 16 -5 35 -17 41 -26z m-6231 -6
c0 -2 -8 -10 -17 -17 -16 -13 -17 -12 -4 4 13 16 21 21 21 13z m-455 -104 c41
-53 54 -77 47 -84 -13 -13 -38 4 -47 31 -3 10 -17 23 -31 30 -14 6 -23 15 -20
20 3 5 0 11 -8 14 -9 4 -12 15 -8 33 4 20 2 25 -8 19 -9 -5 -11 -4 -6 4 12 18
19 12 81 -67z m-182 -74 c55 -73 91 -130 86 -134 -7 -4 -7 -10 0 -17 6 -6 11
-16 11 -21 0 -6 -5 -5 -12 2 -8 8 -15 8 -24 1 -6 -5 -20 -11 -30 -14 -11 -2
-26 -6 -35 -9 -12 -5 -27 18 -66 101 -76 159 -81 178 -58 203 10 11 22 19 25
18 4 -2 50 -60 103 -130z m116 60 c12 -21 18 -38 12 -38 -11 0 -41 51 -41 71
0 15 0 14 29 -33z m721 11 c-26 -17 -170 -89 -170 -85 0 7 163 96 175 96 6 0
3 -5 -5 -11z m5251 -40 c73 -5 156 -13 184 -17 l50 -7 -31 -22 c-26 -18 -37
-21 -65 -13 -57 15 -270 30 -422 30 -89 0 -157 5 -178 12 l-34 13 35 6 c58 11
317 10 461 -2z m-5911 -74 c10 -12 10 -15 -3 -15 -8 0 -17 7 -21 15 -3 8 -2
15 3 15 5 0 14 -7 21 -15z m6035 -30 c-30 -26 -48 -34 -75 -33 -23 0 -27 2
-12 5 12 2 22 9 22 14 0 5 6 9 13 9 6 0 23 9 37 20 44 34 57 21 15 -15z
m-4095 1 c0 -9 -8 -12 -25 -8 -15 2 -25 0 -25 -7 0 -10 22 -16 45 -12 6 1 2
-5 -7 -15 -14 -14 -20 -15 -32 -4 -16 13 -21 42 -9 53 12 13 53 7 53 -7z
m-3057 -93 c104 -36 108 -39 102 -63 l-6 -25 20 22 c23 24 33 23 89 -10 26
-15 35 -17 47 -7 8 7 15 8 15 3 0 -5 13 -16 29 -26 51 -30 153 -109 273 -212
115 -99 236 -180 353 -237 33 -17 96 -54 140 -83 44 -29 97 -61 117 -70 43
-21 48 -35 48 -138 l0 -78 -27 20 c-212 157 -354 256 -560 393 -312 207 -544
366 -554 381 -3 5 -9 2 -12 -7 -7 -19 -48 -22 -44 -4 3 18 -194 83 -203 67 -6
-8 -9 -8 -14 0 -10 15 46 111 64 111 8 0 64 -17 123 -37z m277 6 c17 -13 18
-17 5 -10 -33 17 -51 31 -40 31 6 0 21 -10 35 -21z m5804 -41 c-16 -12 -32
-26 -35 -31 -8 -11 -69 1 -69 13 0 19 47 40 89 40 l44 0 -29 -22z m79 5 c-7
-2 -19 -2 -25 0 -7 3 -2 5 12 5 14 0 19 -2 13 -5z m70 -10 c-7 -2 -21 -2 -30
0 -10 3 -4 5 12 5 17 0 24 -2 18 -5z m-46 -23 c21 0 24 -2 13 -15 -13 -15 -46
-20 -74 -9 -12 5 -13 9 -3 20 7 7 18 11 25 9 8 -3 25 -5 39 -5z m155 3 c-12
-2 -20 -9 -17 -14 4 -5 -1 -9 -10 -9 -9 0 -14 4 -11 8 2 4 -11 6 -31 4 -25 -3
-34 -1 -29 7 4 6 31 10 64 10 31 -1 47 -4 34 -6z m71 -10 c-7 -2 -19 -2 -25 0
-7 3 -2 5 12 5 14 0 19 -2 13 -5z m-326 -9 c-3 -3 -12 -4 -19 -1 -8 3 -5 6 6
6 11 1 17 -2 13 -5z m481 -25 c2 -5 27 -7 55 -5 49 5 46 2 -12 -10 -23 -5 -23
-5 -5 -25 19 -21 19 -21 -21 -13 -22 4 -44 12 -50 18 -5 7 -21 24 -33 38 l-24
26 44 -9 c23 -6 45 -14 46 -20z m-203 9 c-19 -11 -19 -11 0 -19 15 -5 9 -8
-20 -8 -34 0 -36 2 -17 9 12 5 22 14 22 20 0 5 8 10 18 10 15 -1 15 -2 -3 -12z
m53 -18 c-7 -11 -17 -20 -22 -20 -4 0 -3 6 3 14 9 11 9 15 -1 19 -7 3 -3 6 10
6 20 1 21 -1 10 -19z m-5433 -19 c-6 -5 -25 10 -25 20 0 5 6 4 14 -3 8 -7 12
-15 11 -17z m1903 11 c2 -7 -6 -12 -17 -12 -21 0 -27 11 -14 24 9 9 26 2 31
-12z m3385 11 c-7 -2 -19 -2 -25 0 -7 3 -2 5 12 5 14 0 19 -2 13 -5z m-5202
-26 c-10 -9 -11 -8 -5 6 3 10 9 15 12 12 3 -3 0 -11 -7 -18z m5436 7 c-3 -3
-12 -4 -19 -1 -8 3 -5 6 6 6 11 1 17 -2 13 -5z m-6635 -77 c35 -14 71 -28 81
-31 11 -4 15 -11 11 -18 -5 -8 0 -7 11 2 15 12 19 12 23 2 3 -10 10 -8 27 8
l24 22 33 -23 c18 -12 34 -23 36 -24 2 -2 -105 -186 -177 -305 -8 -13 -12 -13
-37 3 -16 10 -37 21 -47 24 -14 4 -17 12 -11 36 4 19 2 32 -6 37 -6 4 -25 54
-41 111 -28 101 -36 170 -23 204 6 14 8 14 20 -3 7 -11 42 -31 76 -45z m3928
43 c0 -5 -7 -10 -15 -10 -8 0 -15 5 -15 10 0 6 7 10 15 10 8 0 15 -4 15 -10z
m3918 -10 c22 -11 48 -20 57 -20 8 0 15 -5 15 -11 0 -6 -6 -9 -12 -7 -7 3 -44
13 -82 23 -51 14 -64 21 -50 26 27 11 26 11 72 -11z m-5138 -45 c-7 -8 -17
-15 -23 -15 -6 0 -2 7 9 15 25 19 30 19 14 0z m5458 -12 c-10 -2 -28 -2 -40 0
-13 2 -5 4 17 4 22 1 32 -1 23 -4z m-3941 -39 c-9 -9 -28 6 -21 18 4 6 10 6
17 -1 6 -6 8 -13 4 -17z m-3007 1 c19 -23 8 -26 -19 -4 -16 13 -18 19 -8 19 8
0 20 -7 27 -15z m2403 -1 c11 -11 -3 -24 -18 -18 -8 4 -12 10 -9 15 6 11 18
12 27 3z m-2424 -34 l3 -25 -22 25 c-12 14 -19 20 -16 15 2 -6 -4 -11 -14 -11
-15 0 -16 3 -8 14 18 21 53 10 57 -18z m1771 16 c0 -9 -8 -12 -25 -8 -28 5
-24 22 6 22 10 0 19 -6 19 -14z m3978 -11 c-3 -3 -9 2 -12 12 -6 14 -5 15 5 6
7 -7 10 -15 7 -18z m-3997 -30 c-1 -15 -24 -12 -29 3 -3 9 2 13 12 10 10 -1
17 -7 17 -13z m-1781 -6 c0 -5 5 -7 10 -4 6 3 10 2 10 -3 0 -5 -11 -9 -25 -9
-15 0 -25 5 -25 13 0 8 7 14 15 14 8 0 15 -5 15 -11z m3123 -28 c51 -56 61
-79 46 -97 -11 -13 -22 -6 -78 52 -69 72 -69 74 -10 83 4 1 23 -17 42 -38z
m-3199 -75 c75 -54 137 -106 144 -120 15 -33 10 -33 -44 4 -45 32 -59 49 -25
30 41 -21 32 -8 -20 31 -79 59 -191 133 -214 140 -18 6 -18 7 4 8 14 1 72 -34
155 -93z m2929 79 c52 -13 148 -65 121 -65 -5 0 -14 4 -19 9 -20 19 -136 51
-187 52 -39 0 -48 3 -33 9 30 13 54 12 118 -5z m-1413 -26 c0 -14 -26 -11 -39
5 -9 11 -6 12 14 8 14 -2 25 -8 25 -13z m695 11 c-3 -5 -12 -10 -18 -10 -7 0
-6 4 3 10 19 12 23 12 15 0z m-499 -48 c0 -9 -7 -21 -13 -25 -18 -11 -16 -44
3 -51 11 -4 18 1 21 14 3 11 7 20 8 20 13 0 35 -14 35 -22 0 -6 -7 -7 -16 -4
-10 4 -18 0 -21 -13 -3 -11 -21 -26 -41 -34 -33 -13 -38 -13 -46 0 -5 9 -5 18
0 22 20 14 44 69 33 73 -9 3 -9 9 0 26 13 24 39 20 37 -6z m4619 -46 l20 -16
-20 7 c-18 5 -17 3 5 -22 18 -21 10 -17 -26 13 -75 61 -89 80 -39 54 22 -11
49 -28 60 -36z m-4665 14 c0 -5 -4 -10 -10 -10 -5 0 -10 5 -10 10 0 6 5 10 10
10 6 0 10 -4 10 -10z m4760 -54 c0 -11 -19 -15 -25 -6 -3 5 1 10 9 10 9 0 16
-2 16 -4z m-4902 -36 c64 -11 123 -22 129 -25 22 -8 -1 -50 -27 -50 -18 0 -26
-11 -45 -62 -20 -55 -20 -63 -6 -68 9 -4 21 1 30 12 13 17 13 17 6 -2 -4 -11
-10 -31 -12 -45 -8 -46 13 0 48 105 46 135 79 160 128 94 21 -29 21 -30 8
-196 -16 -194 -13 -215 29 -220 19 -2 25 -1 15 6 -16 10 -6 17 33 19 20 1 27
-2 23 -12 -3 -8 3 -22 14 -32 58 -52 -24 -124 -89 -78 -30 21 -73 11 -112 -26
-38 -35 -38 -53 -1 -79 37 -26 55 -26 93 0 22 16 29 28 25 45 -2 13 0 21 4 18
18 -10 8 -43 -17 -63 -32 -25 -26 -26 24 -5 32 14 97 26 88 17 -2 -2 2 -20 9
-41 12 -34 12 -39 -8 -59 -24 -27 -44 -29 -83 -8 -16 8 -54 20 -84 26 -59 12
-90 32 -90 59 0 17 -18 40 -32 40 -4 0 -8 -7 -8 -15 0 -8 5 -15 10 -15 6 0 10
-4 10 -10 0 -18 -17 -10 -28 13 -8 17 -11 18 -11 5 -1 -9 -11 -24 -23 -32 -13
-9 -17 -16 -9 -16 8 0 20 8 28 18 14 16 14 16 9 0 -3 -10 -2 -17 2 -17 25 4
23 -4 -6 -21 -39 -24 -42 -24 -42 -6 0 7 -10 16 -22 19 -28 8 -31 5 -14 -18
21 -29 74 -24 103 10 l24 28 27 -26 c27 -25 293 -157 317 -157 7 0 18 6 25 14
17 21 38 9 45 -25 5 -24 19 -36 65 -59 63 -32 90 -64 71 -83 -6 -6 -11 -7 -11
-1 0 5 -4 3 -9 -5 -13 -20 -52 -5 -44 17 6 14 4 15 -8 5 -13 -10 -49 1 -200
61 -210 84 -359 152 -359 166 0 8 -32 23 -55 25 -5 0 -9 7 -7 13 4 19 -17 52
-30 49 -8 -1 -11 11 -9 36 3 38 -11 67 -32 67 -6 0 -2 -6 9 -14 11 -8 15 -18
10 -23 -5 -4 -11 -2 -13 5 -3 6 -16 12 -29 12 -22 0 -23 2 -12 23 7 12 14 23
14 25 1 2 13 0 28 -4 16 -4 26 -13 26 -25 0 -31 31 -40 50 -15 35 45 120 249
120 289 0 11 8 17 22 17 19 0 20 -2 6 -12 -8 -7 -22 -33 -31 -58 -8 -25 -29
-82 -46 -127 -17 -46 -26 -83 -21 -83 5 0 11 10 15 23 3 12 22 67 42 122 28
78 43 106 69 128 19 16 34 34 34 40 1 7 7 26 15 42 13 27 13 20 8 -78 -6 -106
9 -217 29 -217 11 0 10 19 -6 63 -9 28 -12 73 -8 159 4 99 2 120 -9 116 -7 -2
-23 -29 -35 -58 -12 -30 -27 -56 -34 -58 -9 -3 -9 1 -1 17 7 12 10 25 7 29 -7
12 -59 7 -64 -6 -2 -7 5 -11 19 -10 12 2 24 -2 26 -9 5 -14 -36 -11 -82 7 -20
8 -58 9 -111 5 l-81 -7 -79 64 c-82 66 -167 162 -162 181 2 7 24 22 48 35 40
21 54 23 123 17 43 -3 131 -14 195 -25z m1812 26 c0 -11 -19 -15 -25 -6 -3 5
1 10 9 10 9 0 16 -2 16 -4z m-970 -26 c0 -5 -7 -10 -15 -10 -8 0 -15 5 -15 10
0 6 7 10 15 10 8 0 15 -4 15 -10z m-2181 -101 c2 -7 -13 0 -33 16 -20 15 -36
30 -36 32 0 9 65 -36 69 -48z m5784 14 c9 -21 39 -90 67 -153 71 -159 110
-260 100 -260 -5 0 -12 10 -16 23 -4 12 -44 104 -90 204 -45 101 -85 192 -89
203 -11 36 12 21 28 -17z m-2519 -138 c-6 -25 15 -54 41 -58 28 -4 41 -13 66
-48 l22 -31 -47 36 c-26 20 -54 36 -61 36 -7 0 -52 42 -99 93 l-86 92 23 17
c21 16 23 15 84 -50 44 -48 60 -73 57 -87z m2499 -77 c54 -117 99 -217 100
-223 1 -5 -7 -10 -18 -10 -13 0 -21 8 -23 23 -2 13 -8 20 -14 16 -7 -4 -8 -2
-4 5 4 6 -29 96 -73 199 -45 103 -81 190 -81 195 0 30 29 -21 113 -205z
m-3676 120 c-2 -18 -4 -6 -4 27 0 33 2 48 4 33 2 -15 2 -42 0 -60z m-3360 -31
c-47 -45 -106 -117 -133 -158 -74 -114 -76 -118 -53 -69 35 74 102 161 183
238 42 39 79 72 82 72 3 0 -33 -37 -79 -83z m2684 52 c-5 -13 -10 -19 -10 -12
-1 15 10 45 15 40 3 -2 0 -15 -5 -28z m4248 -54 c0 -5 -6 1 -14 15 -8 14 -14
30 -14 35 0 6 6 -1 14 -15 8 -14 14 -29 14 -35z m-7036 3 c-60 -66 -127 -165
-170 -253 -46 -92 -65 -146 -93 -265 l-20 -85 5 60 c8 109 81 292 165 415 39
56 137 170 147 170 3 0 -12 -19 -34 -42z m467 -58 c17 -15 19 -18 5 -11 -11 6
-31 20 -45 31 -17 15 -19 18 -5 11 11 -6 31 -20 45 -31z m6609 -35 c0 -5 -8 6
-19 25 -11 19 -19 40 -19 45 0 6 8 -6 19 -25 11 -19 19 -39 19 -45z m-5477 7
c50 -27 55 -32 44 -47 -11 -16 -18 -13 -74 29 -34 26 -62 55 -62 63 0 15 2 15
18 0 9 -8 43 -29 74 -45z m5148 32 c6 -14 8 -29 5 -34 -3 -4 5 -20 16 -34 12
-15 18 -30 14 -34 -4 -4 -16 6 -28 22 -26 34 -48 92 -40 100 12 12 24 5 33
-20z m-3984 -25 c2 -4 -5 -18 -17 -30 -17 -17 -19 -23 -8 -31 11 -7 10 -8 -4
-4 -10 3 -23 6 -28 6 -6 0 -5 8 1 20 8 14 8 20 0 20 -7 0 -8 6 0 19 10 19 44
19 56 0z m1806 -31 c-4 -16 -2 -19 8 -13 10 6 12 4 7 -9 -5 -12 -3 -16 5 -13
7 2 13 16 13 30 -1 23 3 26 20 21 30 -10 52 -23 38 -24 -7 0 -13 -9 -13 -20 0
-17 -7 -20 -40 -20 -33 0 -42 4 -52 25 -6 14 -16 25 -22 26 -6 0 -2 4 9 9 30
13 34 12 27 -12z m-965 -14 c-9 -9 -28 6 -21 18 4 6 10 6 17 -1 6 -6 8 -13 4
-17z m3075 -24 c-2 -8 3 -10 14 -6 11 4 15 2 11 -8 -5 -13 14 -27 56 -40 9 -3
17 -10 17 -16 0 -15 -26 -12 -40 5 -7 8 -18 15 -24 15 -17 0 -77 51 -71 60 8
13 40 4 37 -10z m153 10 c3 -5 -1 -10 -10 -10 -9 0 -13 5 -10 10 3 6 8 10 10
10 2 0 7 -4 10 -10z m-6360 -20 c3 -6 -1 -7 -9 -4 -18 7 -21 14 -7 14 6 0 13
-4 16 -10z m6545 -10 c0 -5 -7 -10 -15 -10 -8 0 -15 5 -15 10 0 6 7 10 15 10
8 0 15 -4 15 -10z m-3842 -28 c4 -25 -18 -38 -45 -28 -14 6 -15 9 -4 16 8 4
21 6 29 2 10 -3 13 -1 8 6 -4 7 -14 12 -22 12 -8 0 -12 5 -9 11 11 17 40 5 43
-19z m3662 18 c0 -5 7 -7 17 -3 12 5 10 -2 -8 -26 -15 -20 -25 -27 -28 -19 -2
7 -9 17 -15 21 -8 6 -7 10 2 14 6 2 10 9 6 14 -3 5 2 9 10 9 9 0 16 -4 16 -10z
m680 0 c0 -5 -7 -10 -15 -10 -8 0 -15 5 -15 10 0 6 7 10 15 10 8 0 15 -4 15
-10z m-4430 -9 c0 -5 -7 -12 -16 -15 -14 -5 -15 -4 -4 9 14 17 20 19 20 6z
m-1583 -23 c-3 -8 -6 -5 -6 6 -1 11 2 17 5 13 3 -3 4 -12 1 -19z m5512 13 c9
-6 10 -10 2 -16 -15 -8 -41 1 -41 15 0 12 20 13 39 1z m-3499 -11 c0 -5 6 -7
14 -4 17 6 46 -32 46 -61 0 -18 -2 -18 -23 7 -47 56 -146 40 -139 -23 3 -25
72 -104 72 -82 0 6 11 14 25 17 14 4 32 17 41 31 17 26 34 33 34 15 0 -23 -53
-68 -87 -73 -46 -8 -77 13 -97 65 -18 43 -17 44 28 96 20 22 86 32 86 12z
m3995 0 c3 -5 1 -10 -4 -10 -6 0 -11 5 -11 10 0 6 2 10 4 10 3 0 8 -4 11 -10z
m-5950 -19 c10 -17 -12 -21 -25 -6 -10 12 -10 15 3 15 9 0 18 -4 22 -9z m5335
-8 c-1 -18 -18 -35 -24 -24 -4 6 -2 11 4 11 6 0 8 5 5 10 -3 6 -1 10 4 10 6 0
11 -3 11 -7z m-4211 -49 c3 -2 -3 -19 -12 -37 -16 -29 -17 -30 -12 -5 4 22 2
25 -15 21 -16 -4 -18 -8 -9 -19 9 -11 7 -14 -10 -14 -24 0 -25 7 -11 45 9 23
14 26 38 20 15 -4 29 -9 31 -11z m5371 2 c9 -12 8 -15 -8 -13 -12 0 -18 6 -15
14 6 16 8 16 23 -1z m-8174 -33 c-8 -15 -15 -25 -16 -21 0 12 23 58 27 54 3
-2 -2 -17 -11 -33z m1534 3 c-5 -13 -6 -27 -3 -30 4 -3 2 -6 -4 -6 -5 0 -10
-6 -10 -13 0 -16 -33 -67 -43 -67 -4 0 -18 -22 -31 -50 -13 -27 -27 -50 -32
-50 -9 0 8 35 75 153 51 88 65 106 48 63z m5369 -33 c2 26 26 31 54 12 17 -11
27 -13 32 -5 3 5 20 9 36 8 32 -2 33 -6 43 -91 6 -46 5 -48 -14 -34 -11 8 -35
28 -53 44 -18 16 -37 28 -43 26 -7 -2 -10 6 -7 22 7 32 -5 32 -17 0 -10 -25
-11 -25 -40 -10 -17 9 -29 19 -27 23 2 4 8 16 12 27 7 18 9 17 15 -10 4 -16 8
-22 9 -12z m1345 -42 c81 -126 116 -245 116 -395 0 -142 -42 -292 -112 -394
-236 -348 -683 -453 -1033 -241 -30 18 -52 35 -50 37 3 3 11 -1 20 -8 9 -7 18
-10 22 -6 3 3 12 -3 20 -14 8 -12 20 -17 30 -13 12 5 14 3 8 -8 -5 -8 2 -5 14
5 18 17 21 17 15 3 -3 -10 -1 -17 6 -17 6 0 9 -4 5 -9 -3 -5 9 -9 26 -9 17 1
35 -5 40 -13 5 -8 9 -10 9 -5 0 5 6 4 13 -1 19 -16 56 -22 60 -10 2 6 9 4 17
-5 8 -8 22 -13 32 -10 22 5 24 22 3 22 -8 0 -15 4 -15 10 0 5 7 7 16 3 11 -4
22 1 31 13 13 18 13 18 11 -1 -2 -11 -7 -25 -11 -32 -9 -15 21 -22 51 -11 16
5 22 4 22 -7 0 -8 5 -15 10 -15 6 0 10 5 10 10 0 6 7 10 15 10 8 0 15 7 15 16
0 14 2 14 16 -1 15 -14 19 -15 32 -2 16 17 8 37 -15 37 -9 0 -13 3 -9 8 4 4
13 7 19 7 5 0 12 6 15 14 3 8 0 11 -7 7 -7 -4 -11 0 -11 11 0 11 -5 24 -11 30
-8 8 -8 17 0 32 12 22 -2 31 -15 10 -4 -7 -24 -9 -50 -6 -30 3 -47 0 -55 -9
-6 -8 -16 -14 -21 -14 -5 0 4 13 20 28 16 15 27 32 25 38 -2 6 6 19 17 29 17
15 24 16 45 7 14 -6 25 -20 25 -30 0 -11 14 -26 34 -37 30 -16 40 -17 75 -6
43 12 61 35 61 73 0 13 0 34 -1 47 0 13 6 28 13 32 20 13 54 11 66 -4 6 -7 29
-14 50 -15 34 -2 44 2 67 30 22 26 26 39 21 66 -3 19 -15 45 -27 58 -19 20
-21 27 -11 49 15 33 64 35 86 4 13 -19 13 -24 -1 -45 -8 -13 -22 -24 -29 -24
-8 0 -14 -5 -14 -10 0 -19 57 18 63 41 6 24 -1 49 -14 49 -5 0 -9 5 -9 10 0 6
9 10 21 10 11 0 17 -4 14 -10 -3 -5 -1 -10 5 -10 6 0 10 6 8 13 -1 6 4 23 11
35 7 13 12 42 10 65 -3 64 -1 71 14 58 11 -8 13 -7 12 7 0 9 -4 22 -7 27 -10
17 -6 65 5 65 7 0 6 5 -2 13 -11 10 -14 9 -18 -1 -3 -6 -9 -10 -14 -6 -5 3 -2
12 6 20 19 20 20 41 1 25 -11 -9 -12 -6 -8 14 6 32 -14 81 -42 102 -14 10 -15
14 -4 10 14 -5 15 -3 3 20 -8 15 -12 30 -9 35 3 4 0 8 -6 8 -14 0 -40 25 -40
39 0 14 -6 14 -31 0 -17 -9 -19 -7 -14 13 4 16 -1 33 -15 51 -24 31 -23 32 15
13 17 -9 22 -16 13 -19 -9 -4 -7 -6 5 -6 9 -1 17 -8 17 -16 0 -8 6 -12 14 -9
7 3 16 -2 19 -10 4 -9 14 -16 23 -16 10 0 14 -3 11 -6 -9 -10 10 -42 32 -54
16 -8 18 -7 14 13 -3 12 -16 36 -28 52 -28 38 -24 90 9 99 20 5 20 4 2 -9 -11
-8 -16 -21 -13 -30 9 -22 26 -19 37 8 7 18 9 18 9 4 1 -10 6 -15 12 -12 7 5 4
15 -6 32 -10 14 -12 22 -5 18 7 -4 31 -37 54 -74z m-4419 49 c3 -5 -1 -10 -9
-10 -8 0 -18 5 -21 10 -3 6 1 10 9 10 8 0 18 -4 21 -10z m-605 -42 c-1 -26 -3
-30 -10 -16 -6 9 -7 23 -4 32 9 25 14 19 14 -16z m3924 -17 c-4 -14 -14 -35
-24 -46 -9 -11 -22 -29 -28 -40 -10 -17 -11 -13 -12 26 0 26 -3 60 -6 77 l-6
30 41 -10 c37 -10 40 -13 35 -37z m-3319 29 c-3 -5 -12 -10 -18 -10 -7 0 -6 4
3 10 19 12 23 12 15 0z m-571 -35 c-4 -8 -8 -15 -10 -15 -2 0 -4 7 -4 15 0 8
4 15 10 15 5 0 7 -7 4 -15z m3646 -6 c0 -17 -32 -68 -47 -73 -15 -6 -18 10 -3
19 6 3 10 14 10 24 0 18 18 41 32 41 4 0 8 -5 8 -11z m101 -25 c21 -20 36 -42
35 -48 -2 -6 -1 -7 2 -3 11 20 32 -19 32 -60 0 -34 -6 -53 -26 -76 -22 -26
-24 -36 -18 -66 13 -62 6 -90 -31 -133 -19 -23 -35 -46 -35 -52 0 -6 11 2 24
18 l23 30 6 -35 c7 -35 -4 -95 -16 -92 -58 13 -89 13 -109 -1 -30 -21 -38 -20
-38 7 0 12 -5 29 -10 37 -7 11 -10 0 -10 -37 0 -33 -4 -53 -11 -53 -8 0 -10
17 -7 50 5 47 4 50 -18 50 -13 0 -24 5 -24 10 0 6 -7 10 -15 10 -9 0 -15 9
-15 21 0 14 5 19 15 16 8 -4 17 -2 20 3 14 23 35 9 36 -22 l1 -33 19 40 c10
22 18 51 18 65 0 22 -1 23 -8 5 -7 -17 -9 -14 -14 15 -3 23 1 48 13 73 16 35
17 38 2 32 -10 -3 -4 7 13 25 25 26 28 33 17 50 -15 24 -16 44 -2 35 6 -4 10
7 10 26 0 25 33 99 44 99 2 0 2 -12 0 -27 l-4 -28 15 30 c8 17 14 36 15 43 0
20 12 14 51 -24z m-3670 5 c14 -26 -8 -53 -34 -43 -20 7 -22 35 -5 52 17 17
26 15 39 -9z m-2764 -16 c0 -10 -14 -38 -31 -63 -17 -25 -38 -67 -48 -95 -10
-27 -17 -44 -18 -36 0 22 23 95 33 102 5 4 11 20 13 35 1 16 8 30 13 32 6 2
11 10 11 17 0 7 6 16 13 18 6 3 12 6 13 6 0 1 1 -7 1 -16z m2158 8 c-3 -2 3
-10 13 -17 9 -7 13 -13 7 -13 -5 -1 -20 7 -33 17 -22 17 -22 18 -3 18 11 0 18
-2 16 -5z m-2778 -23 c-3 -8 -6 -5 -6 6 -1 11 2 17 5 13 3 -3 4 -12 1 -19z
m7937 -81 c14 -91 12 -137 -4 -137 -7 0 -20 129 -20 204 0 61 8 39 24 -67z
m188 73 c15 -17 22 -33 16 -36 -5 -3 -7 -11 -5 -18 3 -7 -10 -12 -34 -14 -30
-2 -40 2 -49 18 -11 21 -8 32 18 63 20 23 23 22 54 -13z m-379 -40 c3 -11 2
-20 -3 -20 -4 0 -10 11 -12 25 -6 29 7 25 15 -5z m92 20 c3 -5 2 -10 -4 -10
-5 0 -16 -3 -25 -6 -11 -4 -16 -1 -16 10 0 18 35 22 45 6z m-5000 -10 c-3 -5
-1 -10 6 -10 10 0 10 -3 1 -12 -9 -9 -15 -9 -24 0 -10 10 -10 15 2 22 19 12
23 12 15 0z m2085 0 c0 -5 -7 -10 -15 -10 -8 0 -15 5 -15 10 0 6 7 10 15 10 8
0 15 -4 15 -10z m673 -118 c41 -69 69 -126 55 -112 -3 3 -37 59 -76 125 -40
66 -61 107 -48 92 12 -16 44 -63 69 -105z m-1578 88 c3 -5 -1 -10 -9 -10 -9 0
-16 5 -16 10 0 6 4 10 9 10 6 0 13 -4 16 -10z m896 -8 c-7 -2 -18 1 -23 6 -8
8 -4 9 13 5 13 -4 18 -8 10 -11z m1949 9 c0 -5 -7 -12 -16 -15 -14 -5 -15 -4
-4 9 14 17 20 19 20 6z m970 -7 c0 -2 -9 -4 -21 -4 -11 0 -18 4 -14 10 5 8 35
3 35 -6z m-4030 -19 c0 -8 -4 -15 -10 -15 -5 0 -7 7 -4 15 4 8 8 15 10 15 2 0
4 -7 4 -15z m210 -11 c0 -2 -7 -4 -15 -4 -8 0 -15 4 -15 10 0 5 7 7 15 4 8 -4
15 -8 15 -10z m600 6 c0 -5 -4 -10 -9 -10 -6 0 -13 5 -16 10 -3 6 1 10 9 10 9
0 16 -4 16 -10z m2281 -10 c19 -10 27 -54 11 -63 -4 -3 -19 -3 -35 0 -21 4
-27 11 -27 32 0 42 14 50 51 31z m-4324 -6 c-3 -3 -12 -4 -19 -1 -8 3 -5 6 6
6 11 1 17 -2 13 -5z m1748 -4 c-3 -5 -12 -7 -20 -3 -21 7 -19 13 6 13 11 0 18
-4 14 -10z m3489 -41 c20 -39 6 -37 -19 4 -28 46 -30 54 -12 38 9 -7 23 -26
31 -42z m-3191 29 c-6 -11 -31 -10 -37 1 -3 5 5 8 18 7 13 0 22 -4 19 -8z
m-299 -20 c-3 -4 -12 -8 -20 -8 -8 0 -14 4 -14 8 0 4 9 8 19 8 11 0 17 -4 15
-8z m3156 -34 c16 -48 4 -56 -15 -11 -18 42 -18 47 -6 47 5 0 15 -16 21 -36z
m-6490 11 c8 -9 10 -28 6 -48 -3 -19 -3 -27 3 -19 5 9 10 1 14 -25 2 -21 6
-44 8 -51 2 -8 -4 -19 -13 -25 -23 -16 -38 0 -42 45 -2 19 -6 40 -10 47 -5 7
-5 15 -2 18 3 3 0 13 -6 21 -10 11 -9 17 5 27 9 6 14 15 10 18 -3 4 -2 7 4 7
6 0 16 -7 23 -15z m-1077 -281 c8 -38 32 -112 52 -164 48 -125 54 -163 10 -74
-63 130 -86 231 -90 389 l-4 140 9 -110 c5 -61 15 -142 23 -181z m862 276 c-4
-6 5 -10 20 -10 24 0 25 -1 12 -20 -19 -28 -7 -93 24 -127 23 -25 23 -25 2
-14 -12 6 -27 19 -32 29 -14 22 -14 6 -1 -18 6 -11 23 -26 38 -34 23 -13 24
-15 7 -16 l-20 -1 20 -9 c18 -8 17 -9 -6 -9 -37 -1 -44 11 -64 116 -16 84 -16
123 0 123 4 0 3 -4 0 -10z m6105 -20 c0 -5 -4 -10 -10 -10 -5 0 -10 5 -10 10
0 6 5 10 10 10 6 0 10 -4 10 -10z m-6350 -60 c0 -33 -3 -60 -7 -60 -5 0 -6 27
-5 60 5 77 12 77 12 0z m410 30 c0 -15 -5 -12 -26 11 -19 22 -19 22 4 10 12
-6 22 -16 22 -21z m190 -34 c-9 -8 -14 -8 -17 1 -3 9 -18 11 -46 8 -41 -5 -40
-4 13 13 46 15 56 16 58 4 2 -8 -2 -19 -8 -26z m3400 14 c0 -5 -4 -10 -10 -10
-5 0 -10 5 -10 10 0 6 5 10 10 10 6 0 10 -4 10 -10z m3685 -6 c20 -20 16 -63
-7 -77 -28 -18 -68 7 -68 42 0 45 44 66 75 35z m512 -111 c-14 -277 -136 -544
-325 -713 -96 -86 -98 -76 -4 17 84 84 166 192 209 278 64 125 113 331 113
473 0 34 3 62 7 62 3 0 3 -53 0 -117z m-1857 61 c0 -32 -4 -44 -12 -42 -17 6
-22 56 -7 74 17 21 19 18 19 -32z m-3823 -50 c-8 -8 -76 65 -77 81 0 5 19 -9
42 -32 23 -23 39 -45 35 -49z m893 67 c0 -6 -4 -13 -10 -16 -5 -3 -10 1 -10 9
0 9 5 16 10 16 6 0 10 -4 10 -9z m3749 2 c-10 -2 -19 -13 -22 -23 -5 -18 -47
-26 -47 -8 0 13 44 38 65 37 15 -1 16 -2 4 -6z m51 -53 c0 -58 -84 -83 -116
-35 -9 14 -15 28 -12 30 3 3 11 -6 18 -20 19 -36 72 -35 88 1 8 17 9 31 2 44
-15 28 -12 38 5 16 8 -11 15 -27 15 -36z m-6790 20 c0 -5 -5 -10 -11 -10 -5 0
-7 5 -4 10 3 6 8 10 11 10 2 0 4 -4 4 -10z m1530 -31 c21 -38 -24 -66 -51 -32
-12 15 -12 16 4 10 18 -7 24 7 7 18 -17 10 -11 25 10 25 10 0 24 -9 30 -21z
m-1956 -33 c-16 -25 -16 -26 5 -26 15 0 19 5 15 18 -5 14 -4 15 5 2 6 -8 8
-23 5 -34 -4 -11 -2 -16 4 -12 9 6 27 -21 24 -36 -1 -5 3 -8 8 -8 5 0 10 -5
10 -12 0 -7 12 -22 26 -34 14 -13 26 -26 27 -31 1 -4 8 -7 14 -7 7 1 11 -2 8
-6 -5 -8 24 -24 38 -22 4 1 7 -3 7 -8 0 -5 8 -10 18 -10 10 0 22 -3 26 -7 7
-8 20 -10 89 -20 26 -3 50 -9 52 -14 3 -4 17 -3 33 1 78 24 106 29 113 19 4
-7 8 -5 12 4 4 10 13 13 25 10 15 -3 24 3 34 24 8 15 20 27 27 25 7 -1 10 2 7
7 -8 13 14 28 51 34 17 3 37 8 43 12 9 6 9 2 1 -12 -5 -11 -6 -24 -2 -29 5 -5
-1 -19 -13 -32 -20 -21 -24 -21 -36 -7 -11 13 -10 15 2 10 8 -3 20 0 27 8 9
11 8 17 -4 27 -10 8 -19 10 -25 4 -15 -15 -19 -74 -6 -75 7 0 6 -3 -1 -6 -7
-2 -13 -11 -13 -19 0 -8 -5 -14 -10 -14 -6 0 -23 -12 -38 -26 l-27 -26 30 6
c17 4 37 7 46 7 27 1 124 94 168 162 42 64 57 69 20 7 -53 -88 -157 -184 -198
-183 -9 0 -23 -6 -32 -13 -8 -7 -24 -15 -35 -17 -10 -2 -32 -10 -49 -17 -16
-7 -76 -15 -133 -16 -90 -4 -112 -1 -184 23 -49 16 -104 43 -139 69 -60 45
-139 135 -139 160 0 8 -5 14 -11 14 -6 0 -8 7 -5 16 3 8 2 13 -3 10 -8 -5 -31
35 -31 54 0 6 8 10 19 10 13 0 21 10 26 33 6 30 7 31 15 10 5 -13 13 -23 18
-23 15 0 33 26 24 35 -4 5 -1 5 6 1 7 -5 12 -1 13 11 0 10 3 13 5 6 3 -6 -2
-23 -12 -37z m3241 34 c8 -13 -5 -13 -25 0 -13 8 -13 10 2 10 9 0 20 -4 23
-10z m195 0 c13 -8 13 -10 -2 -10 -9 0 -20 5 -23 10 -8 13 5 13 25 0z m4020
-15 c10 -12 10 -18 0 -30 -26 -31 -59 -11 -40 25 13 24 23 25 40 5z m-150 -41
c0 -23 -19 -25 -30 -4 -14 26 -4 45 16 29 8 -6 14 -17 14 -25z m-2064 -81 c15
-20 23 -33 16 -29 -13 8 -56 66 -49 66 3 0 17 -17 33 -37z m-4950 -29 c24 6
26 5 15 -8 -8 -9 -21 -16 -31 -16 -20 0 -43 23 -33 34 4 3 10 1 14 -5 4 -7 17
-9 35 -5z m2857 -1 c-7 -2 -19 -2 -25 0 -7 3 -2 5 12 5 14 0 19 -2 13 -5z
m3816 -12 c17 -11 7 -41 -13 -41 -19 0 -29 17 -22 35 6 17 15 18 35 6z m-224
-52 c11 -16 1 -19 -13 -3 -7 8 -8 14 -3 14 5 0 13 -5 16 -11z m-111 -13 c10 4
16 1 16 -8 0 -20 38 -58 58 -58 15 0 15 2 2 10 -13 8 -13 10 2 10 9 0 21 8 27
17 5 10 12 15 16 12 3 -4 -1 -14 -10 -22 -8 -9 -15 -33 -15 -55 0 -33 6 -45
32 -67 26 -22 37 -25 70 -20 36 6 38 5 38 -19 0 -32 32 -51 59 -36 28 14 31
13 42 -19 6 -15 20 -33 32 -39 18 -9 16 -10 -18 -6 -22 2 -53 7 -70 11 -67 14
-137 22 -148 16 -4 -3 -3 -11 3 -18 8 -9 6 -14 -5 -19 -13 -5 -16 0 -13 27 2
26 0 32 -17 32 -11 0 -19 -6 -17 -13 1 -8 -2 -11 -8 -7 -6 3 -8 11 -5 16 4 5
1 9 -5 9 -6 0 -8 5 -5 10 3 6 1 10 -4 10 -6 0 -10 3 -9 8 6 24 -15 52 -40 52
-21 0 -24 3 -12 10 21 13 3 25 -44 29 -5 1 -3 8 4 16 7 8 10 22 6 30 -3 8 -1
15 3 15 5 0 12 -6 14 -12 3 -7 4 0 3 15 0 15 -6 31 -11 35 -6 4 -11 15 -11 25
-2 13 1 15 11 7 7 -6 20 -8 29 -4z m636 -6 c0 -26 -25 -36 -45 -20 -12 10 -13
16 -4 26 18 22 49 17 49 -6z m-593 -12 c-3 -8 -6 -5 -6 6 -1 11 2 17 5 13 3
-3 4 -12 1 -19z m-209 -23 c-3 -3 -9 2 -12 12 -6 14 -5 15 5 6 7 -7 10 -15 7
-18z m-2429 -14 c42 -15 72 -44 59 -56 -3 -4 -39 5 -79 19 -40 14 -75 23 -78
21 -6 -7 -4 -8 69 -36 55 -21 65 -28 65 -49 0 -39 -41 -48 -137 -28 -75 16
-118 38 -118 61 0 13 80 0 108 -19 13 -8 33 -13 45 -11 25 4 24 5 -65 37 -49
18 -58 25 -58 46 0 16 8 28 23 34 28 12 108 3 166 -19z m2476 -66 c19 -32 29
-52 22 -46 -8 6 -26 34 -42 63 -36 67 -25 58 20 -17z m-2307 29 c9 -2 6 -16
-10 -49 -19 -40 -20 -47 -8 -56 8 -5 29 -8 45 -7 24 2 34 11 50 43 11 22 21
42 22 43 1 2 20 1 42 -3 l41 -7 -21 -41 c-33 -65 -47 -77 -93 -77 -57 0 -155
25 -173 43 -14 13 -13 21 10 71 27 60 30 60 95 40z m327 -66 c61 -11 111 -22
113 -23 1 -1 0 -9 -3 -18 -4 -8 -36 -22 -76 -33 -38 -10 -69 -21 -69 -25 0 -3
23 -9 50 -13 28 -4 50 -10 50 -14 0 -26 -26 -27 -139 -4 -129 27 -146 42 -67
62 22 6 57 16 76 22 l35 11 -30 8 c-16 4 -42 10 -57 13 -19 4 -26 11 -22 21 8
19 8 19 139 -7z m203 -44 c9 -2 6 -16 -10 -49 -25 -51 -18 -65 34 -65 21 0 32
9 52 45 27 45 46 53 88 37 15 -6 14 -12 -10 -57 -36 -67 -60 -74 -164 -53 -45
10 -88 24 -97 33 -14 13 -12 21 12 70 28 58 31 59 95 39z m-2917 -21 c-12 -20
-14 -14 -5 12 4 9 9 14 11 11 3 -2 0 -13 -6 -23z m6660 -6 c-10 -9 -11 -8 -5
6 3 10 9 15 12 12 3 -3 0 -11 -7 -18z m-8757 -3 c10 -25 -1 -29 -14 -5 -6 12
-7 21 -1 21 5 0 12 -7 15 -16z m5278 -22 c13 -5 15 -11 8 -22 -17 -27 -11 -29
38 -15 47 14 152 11 152 -5 0 -4 -14 -10 -32 -14 -18 -3 -49 -11 -71 -17 l-38
-10 38 -47 c21 -25 30 -43 21 -40 -9 4 -32 10 -51 13 -19 4 -47 20 -62 35 -28
29 -28 29 -44 9 -14 -17 -23 -19 -54 -14 -21 4 -36 10 -35 14 57 113 63 121
88 120 14 0 33 -3 42 -7z m-5432 -23 c0 -6 -4 -7 -10 -4 -5 3 -10 11 -10 16 0
6 5 7 10 4 6 -3 10 -11 10 -16z m8883 -24 c-3 -9 -8 -14 -10 -11 -3 3 -2 9 2
15 9 16 15 13 8 -4z m-3154 -11 c2 -2 -13 -32 -33 -69 -39 -68 -40 -69 -103
-50 -7 2 1 27 24 70 l35 66 36 -7 c20 -4 39 -8 41 -10z m1558 10 c-3 -3 -12
-4 -19 -1 -8 3 -5 6 6 6 11 1 17 -2 13 -5z m206 -11 c-7 -2 -19 -2 -25 0 -7 3
-2 5 12 5 14 0 19 -2 13 -5z m-246 -25 c2 -16 0 -19 -6 -9 -5 7 -15 17 -22 22
-11 7 -9 9 6 9 14 0 21 -7 22 -22z m-5087 -68 c-41 -70 -109 -170 -116 -170
-6 0 -6 -1 58 96 25 38 55 87 64 108 10 21 20 33 22 28 1 -5 -11 -33 -28 -62z
m5135 60 c3 -5 1 -10 -4 -10 -6 0 -11 5 -11 10 0 6 2 10 4 10 3 0 8 -4 11 -10z
m-2515 -31 c-67 -10 -174 -9 -192 2 -7 5 43 8 117 8 110 -1 122 -3 75 -10z
m4060 -8 c-5 -11 -15 -23 -21 -27 -6 -3 -3 5 6 20 20 30 30 35 15 7z m-4397 2
c-13 -2 -35 -2 -50 0 -16 2 -5 4 22 4 28 0 40 -2 28 -4z m-4243 -161 c73 -51
100 -75 55 -48 -56 34 -170 125 -210 167 -29 32 -23 27 25 -15 36 -32 94 -79
130 -104z m-45 108 c32 -35 106 -86 196 -135 46 -24 80 -45 74 -45 -38 0 -260
144 -310 200 l-20 23 20 -11 c11 -5 29 -20 40 -32z m8585 -113 c0 -2 -10 -12
-22 -23 l-23 -19 19 23 c18 21 26 27 26 19z m-6720 -60 c0 -2 -19 -21 -42 -42
l-43 -40 40 43 c36 39 45 47 45 39z m4441 -14 c13 -16 12 -17 -3 -4 -10 7 -18
15 -18 17 0 8 8 3 21 -13z m-5991 -3 c8 -5 11 -10 5 -10 -5 0 -17 5 -25 10 -8
5 -10 10 -5 10 6 0 17 -5 25 -10z m8150 -63 c0 -2 -12 -14 -27 -28 l-28 -24
24 28 c23 25 31 32 31 24z m-6700 -20 c0 -2 -17 -19 -37 -38 l-38 -34 34 38
c33 34 41 42 41 34z m6059 -17 c-34 -20 -193 -60 -257 -65 -66 -5 -66 -5 18 9
47 8 119 26 160 39 80 27 104 32 79 17z m551 -43 c0 -2 -15 -16 -32 -33 l-33
-29 29 33 c28 30 36 37 36 29z m-902 -34 c-15 -2 -42 -2 -60 0 -18 2 -6 4 27
4 33 0 48 -2 33 -4z m832 -27 c0 -2 -8 -10 -17 -17 -16 -13 -17 -12 -4 4 13
16 21 21 21 13z"/>
<path d="M7607 5797 c-26 -24 -47 -48 -47 -53 0 -4 23 14 50 41 46 46 54 55
47 55 -1 0 -24 -20 -50 -43z"/>
<path d="M8403 5619 c-21 -8 -26 -40 -7 -46 17 -5 36 14 32 34 -2 17 -7 19
-25 12z"/>
<path d="M8440 5600 c0 -5 5 -10 11 -10 5 0 7 5 4 10 -3 6 -8 10 -11 10 -2 0
-4 -4 -4 -10z"/>
<path d="M8540 5406 c0 -2 8 -10 18 -17 15 -13 16 -12 3 4 -13 16 -21 21 -21
13z"/>
<path d="M1480 5088 c14 -5 54 -11 90 -13 l65 -4 -65 14 c-36 8 -76 14 -90 14
l-25 0 25 -11z"/>
<path d="M1560 4855 c7 -8 16 -12 21 -9 13 8 1 24 -18 24 -13 0 -13 -3 -3 -15z"/>
<path d="M7553 4435 c6 -17 47 -18 47 -2 0 10 -9 14 -25 13 -14 0 -24 -5 -22
-11z"/>
<path d="M8805 4640 c28 -10 75 -28 105 -40 30 -12 50 -17 45 -11 -16 16 -156
71 -179 70 -12 0 0 -8 29 -19z"/>
<path d="M7438 3926 c-21 -15 -6 -36 27 -36 20 1 20 1 1 15 -11 8 -14 15 -8
15 7 0 12 5 12 10 0 13 -11 12 -32 -4z"/>
<path d="M8826 3841 c-4 -5 0 -12 6 -14 10 -4 10 -6 1 -6 -14 -1 -19 -31 -5
-31 4 0 15 7 26 15 17 13 17 15 3 29 -18 18 -24 20 -31 7z"/>
<path d="M6246 2831 c-24 -26 -17 -60 17 -85 26 -19 30 -19 55 -5 33 18 42 68
17 93 -22 22 -68 20 -89 -3z m64 -11 c0 -5 -9 -10 -20 -10 -11 0 -20 5 -20 10
0 6 9 10 20 10 11 0 20 -4 20 -10z m-6 -35 c3 -9 0 -15 -9 -15 -8 0 -15 7 -15
15 0 8 4 15 9 15 5 0 11 -7 15 -15z"/>
<path d="M2346 3665 c4 -8 11 -15 16 -15 6 0 5 6 -2 15 -7 8 -14 15 -16 15 -2
0 -1 -7 2 -15z"/>
<path d="M2389 3590 c12 -19 25 -34 31 -33 6 2 5 -6 -1 -21 -9 -18 -7 -31 10
-65 12 -22 24 -41 27 -41 12 0 -4 51 -20 63 -14 11 -16 18 -9 31 9 16 12 14
32 -17 11 -19 21 -40 21 -46 0 -7 4 -10 9 -6 5 3 -8 35 -29 71 -42 72 -55 89
-44 59 4 -14 -1 -12 -21 10 l-27 30 21 -35z"/>
<path d="M7527 3406 c-18 -14 -17 -14 2 -21 14 -4 30 1 47 14 l27 21 -29 0
c-16 0 -37 -7 -47 -14z"/>
<path d="M7688 3363 c7 -3 16 -2 19 1 4 3 -2 6 -13 5 -11 0 -14 -3 -6 -6z"/>
<path d="M8050 3325 c28 -29 39 -32 36 -7 -2 9 -8 17 -14 17 -6 0 -14 3 -18 8
-20 20 -24 4 -4 -18z"/>
<path d="M3750 2887 c0 -8 25 -21 58 -31 44 -14 63 -15 85 -7 58 22 5 49 -100
50 -30 1 -43 -3 -43 -12z"/>
<path d="M4190 2846 c0 -20 27 -39 45 -32 8 3 15 14 15 24 0 13 -9 18 -30 20
-20 2 -30 -2 -30 -12z m40 -11 c0 -9 -6 -12 -15 -9 -8 4 -12 10 -9 15 8 14 24
10 24 -6z"/>
<path d="M3690 2836 c0 -7 25 -26 55 -41 30 -15 52 -32 49 -36 -3 -5 3 -6 12
-2 12 4 15 3 10 -5 -5 -8 -1 -10 10 -5 12 4 15 3 10 -5 -5 -8 -1 -10 10 -5 12
4 15 3 10 -5 -5 -8 -1 -9 15 -3 13 4 24 12 26 17 7 20 -54 62 -116 83 -76 25
-91 26 -91 7z"/>
<path d="M4011 2841 c-9 -6 -6 -10 10 -14 28 -8 34 -3 16 11 -7 6 -19 7 -26 3z"/>
<path d="M3927 2818 c-15 -12 -13 -17 18 -58 18 -25 40 -45 47 -45 13 0 30 30
43 75 7 24 6 24 -8 6 -16 -22 -47 -16 -47 9 0 10 5 13 12 9 7 -4 8 -3 4 4 -9
16 -48 15 -69 0z"/>
<path d="M3720 2787 c8 -8 26 -18 40 -22 32 -9 25 -2 -20 20 -27 13 -32 14
-20 2z"/>
<path d="M3880 2716 c0 -2 7 -7 16 -10 8 -3 12 -2 9 4 -6 10 -25 14 -25 6z"/>
<path d="M3980 2660 c0 -5 5 -10 11 -10 5 0 7 5 4 10 -3 6 -8 10 -11 10 -2 0
-4 -4 -4 -10z"/>
<path d="M4300 2382 c0 -34 49 -58 65 -32 3 6 -1 7 -9 4 -25 -10 -52 4 -38 18
16 16 15 28 -3 28 -8 0 -15 -8 -15 -18z"/>
<path d="M4350 2390 c-8 -5 -13 -10 -10 -11 3 0 13 -2 23 -4 9 -2 17 3 17 11
0 16 -9 18 -30 4z"/>
<path d="M4174 2354 c-18 -14 -18 -15 4 -4 12 6 22 13 22 15 0 8 -5 6 -26 -11z"/>
<path d="M4080 2296 c0 -9 5 -16 10 -16 6 0 10 4 10 9 0 6 -4 13 -10 16 -5 3
-10 -1 -10 -9z"/>
<path d="M4028 2283 c-24 -6 -23 -39 2 -46 24 -6 36 9 21 27 -6 7 -8 16 -4 19
3 4 4 6 2 6 -2 -1 -12 -3 -21 -6z"/>
<path d="M3963 2250 c1 -19 52 -48 64 -37 3 3 -6 9 -20 12 -15 4 -24 12 -21
20 3 7 -2 15 -10 18 -10 4 -14 0 -13 -13z"/>
<path d="M4379 2205 c-3 -2 -18 -5 -34 -8 -27 -3 -31 -8 -26 -36 0 -5 10 -13
22 -16 33 -11 78 42 50 59 -4 3 -10 4 -12 1z m-4 -25 c18 -7 19 -8 3 -15 -22
-9 -51 1 -43 15 7 12 13 12 40 0z"/>
<path d="M4060 2131 c0 -6 9 -15 21 -21 18 -10 20 -9 17 7 -3 19 -38 32 -38
14z"/>
<path d="M4180 2080 c8 -5 20 -10 25 -10 6 0 3 5 -5 10 -8 5 -19 10 -25 10 -5
0 -3 -5 5 -10z"/>
<path d="M4220 2066 c0 -2 7 -7 16 -10 8 -3 12 -2 9 4 -6 10 -25 14 -25 6z"/>
<path d="M9405 2279 c-4 -6 -5 -12 -2 -15 2 -3 7 2 10 11 7 17 1 20 -8 4z"/>
<path d="M9394 2179 c-8 -14 11 -33 25 -25 6 4 11 11 11 16 0 13 -29 20 -36 9z"/>
<path d="M9471 2106 c-12 -14 -5 -26 16 -26 15 0 18 26 4 34 -5 3 -14 0 -20
-8z"/>
<path d="M9414 1999 c-10 -17 13 -36 27 -22 12 12 4 33 -11 33 -5 0 -12 -5
-16 -11z"/>
<path d="M9496 1923 c-12 -12 -6 -33 9 -33 8 0 15 6 15 14 0 17 -14 28 -24 19z"/>
<path d="M9442 1819 c2 -6 8 -10 13 -10 5 0 11 4 13 10 2 6 -4 11 -13 11 -9 0
-15 -5 -13 -11z"/>
<path d="M9385 1750 c-8 -13 4 -32 16 -25 12 8 12 35 0 35 -6 0 -13 -4 -16
-10z"/>
<path d="M9230 1695 c-17 -20 -5 -45 20 -45 11 0 23 7 26 15 6 15 -11 45 -26
45 -4 0 -13 -7 -20 -15z"/>
<path d="M9420 1640 c0 -13 5 -20 13 -17 6 2 12 10 12 17 0 7 -6 15 -12 18 -8
2 -13 -5 -13 -18z"/>
<path d="M9318 1585 c-4 -21 -3 -23 13 -14 22 11 25 39 5 39 -7 0 -16 -11 -18
-25z"/>
<path d="M9058 1499 c-10 -6 -14 -17 -11 -30 7 -27 47 -22 51 7 4 25 -17 36
-40 23z"/>
<path d="M9310 1495 c0 -10 7 -15 18 -13 21 4 19 22 -2 26 -10 2 -16 -3 -16
-13z"/>
<path d="M9127 1483 c-4 -3 -7 -11 -7 -17 0 -6 5 -5 12 2 6 6 9 14 7 17 -3 3
-9 2 -12 -2z"/>
<path d="M9105 1441 c-6 -5 -23 -11 -40 -14 l-30 -4 31 -2 c18 0 37 6 44 14
14 16 10 21 -5 6z"/>
<path d="M9274 1415 c-7 -18 3 -35 21 -35 21 0 28 19 15 35 -16 19 -29 19 -36
0z"/>
<path d="M8790 1396 c0 -28 28 -42 47 -23 19 19 5 47 -23 47 -19 0 -24 -5 -24
-24z"/>
<path d="M9161 1407 c-16 -16 7 -41 25 -26 8 6 14 15 14 19 0 14 -27 19 -39 7z"/>
<path d="M8885 1339 c-4 -6 -5 -12 -2 -15 2 -3 7 2 10 11 7 17 1 20 -8 4z"/>
<path d="M8924 1309 c-9 -16 12 -33 31 -25 14 5 15 9 5 21 -15 18 -26 19 -36
4z"/>
<path d="M9127 1304 c-16 -16 -6 -35 16 -32 12 2 22 10 22 18 0 16 -26 25 -38
14z"/>
<path d="M9030 1279 c0 -24 23 -21 28 4 2 10 -3 17 -12 17 -10 0 -16 -9 -16
-21z"/>
<path d="M8040 1740 c0 -5 7 -7 15 -4 8 4 15 8 15 10 0 2 -7 4 -15 4 -8 0 -15
-4 -15 -10z"/>
<path d="M9203 2223 c-15 -6 -17 -49 -3 -58 18 -11 50 6 50 25 0 21 -28 40
-47 33z"/>
<path d="M9281 1957 c-17 -21 -3 -49 23 -45 15 2 21 10 21 28 0 28 -26 38 -44
17z"/>
<path d="M1601 1797 c-9 -11 -8 -17 4 -27 12 -10 16 -9 21 5 9 23 -10 40 -25
22z"/>
<path d="M1677 1744 c-14 -15 -6 -34 14 -34 14 0 19 5 17 17 -3 18 -20 27 -31
17z"/>
<path d="M1594 1719 c-3 -6 -2 -15 4 -21 13 -13 32 -2 32 18 0 16 -26 19 -36
3z"/>
<path d="M1710 1680 c-13 -8 -13 -11 2 -27 14 -13 20 -15 30 -5 17 17 -11 45
-32 32z"/>
<path d="M2250 1631 c0 -12 9 -20 23 -23 20 -4 23 -1 19 19 -5 29 -42 32 -42
4z"/>
<path d="M1744 1615 c-7 -18 3 -35 21 -35 21 0 28 19 15 35 -16 19 -29 19 -36
0z"/>
<path d="M1835 1600 c-8 -14 3 -30 21 -30 8 0 14 9 14 20 0 21 -24 28 -35 10z"/>
<path d="M2127 1567 c-3 -8 -1 -20 4 -28 8 -12 10 -12 19 1 5 8 8 19 7 24 -5
16 -24 18 -30 3z"/>
<path d="M1902 1553 c4 -21 33 -25 33 -3 0 8 -8 16 -18 18 -14 3 -18 -1 -15
-15z"/>
<path d="M2054 1559 c-3 -6 -1 -16 5 -22 9 -9 14 -8 21 3 9 15 4 30 -10 30 -5
0 -12 -5 -16 -11z"/>
<path d="M2196 1561 c-7 -11 18 -33 27 -24 4 3 7 12 7 20 0 15 -26 18 -34 4z"/>
<path d="M1780 1541 c0 -15 6 -21 21 -21 14 0 19 5 17 17 -5 26 -38 29 -38 4z"/>
<path d="M1964 1529 c-10 -17 13 -36 27 -22 12 12 4 33 -11 33 -5 0 -12 -5
-16 -11z"/>
<path d="M2022 1483 c2 -10 14 -19 26 -21 19 -3 23 1 20 15 -2 10 -14 19 -26
21 -19 3 -23 -1 -20 -15z"/>
<path d="M8322 1463 c2 -10 10 -18 18 -18 8 0 16 8 18 18 2 12 -3 17 -18 17
-15 0 -20 -5 -18 -17z"/>
</g>
</svg>
